<svg data-v-661c1d78="" width="20" height="20" viewBox="0 0 20 20" fill="none"
    xmlns="http://www.w3.org/2000/svg" class="ui-icon ">
    <path fill-rule="evenodd" clip-rule="evenodd"
        d="M10.0007 2.29169C6.66393 2.29169 3.95898 4.99663 3.95898 8.33335C3.95898 9.97615 4.70055 11.509 5.91249 13.0827C6.93437 14.4096 8.24233 15.7069 9.63348 17.0867C9.75528 17.2075 9.87771 17.3289 10.0007 17.4511C10.1236 17.3289 10.246 17.2075 10.3678 17.0867C11.759 15.7069 13.0669 14.4096 14.0888 13.0827C15.3008 11.509 16.0423 9.97615 16.0423 8.33335C16.0423 4.99663 13.3374 2.29169 10.0007 2.29169ZM2.70898 8.33335C2.70898 4.30628 5.97357 1.04169 10.0007 1.04169C14.0277 1.04169 17.2923 4.30628 17.2923 8.33335C17.2923 10.3725 16.3672 12.1729 15.0792 13.8454C14.0015 15.2447 12.6223 16.6121 11.2323 17.9902C10.9688 18.2514 10.7049 18.513 10.4426 18.7753C10.1985 19.0194 9.80279 19.0194 9.55871 18.7753C9.29642 18.513 9.03254 18.2514 8.76904 17.9902C7.37904 16.6121 5.99977 15.2447 4.92214 13.8454C3.63409 12.1729 2.70898 10.3725 2.70898 8.33335ZM10.0007 6.45835C8.96512 6.45835 8.12565 7.29782 8.12565 8.33335C8.12565 9.36889 8.96512 10.2084 10.0007 10.2084C11.0362 10.2084 11.8757 9.36889 11.8757 8.33335C11.8757 7.29782 11.0362 6.45835 10.0007 6.45835ZM6.87565 8.33335C6.87565 6.60746 8.27476 5.20835 10.0007 5.20835C11.7265 5.20835 13.1257 6.60746 13.1257 8.33335C13.1257 10.0592 11.7265 11.4584 10.0007 11.4584C8.27476 11.4584 6.87565 10.0592 6.87565 8.33335Z"
        fill="#1F2026"></path>
</svg>